# xmcd CD database file
#
# Track frame offsets:
#	150
#	7385
#	24635
#	39805
#	52407
#	68605
#	80915
#	103575
#	122135
#	139777
#	160787
#	180195
#	197997
#	214162
#	246275
#
# Disc length: 3530 seconds
#
# Revision: 0
# Processed by: cddbd v1.5.1PL0 Copyright (c) Steve Scherf et al.
# Submitted via: CDex 1.51
#
DISCID=d70dc80f
DTITLE=BumbaMeuBoi da Maioba - BumbaMeuBoi da Maioba
DYEAR=2002
DGENRE=Folklore Nacional
TTITLE0=Abertura-Boi Maioba
TTITLE1=Guarnicê-Boi Maioba
TTITLE2=Chegada-Boi Maioba
TTITLE3=Chegada-Boi Maioba
TTITLE4=A mancha da poeira-Boi Maioba
TTITLE5=Feliz da vida-Boi Maioba
TTITLE6=Ouca com muita atencao-Boi Maioba
TTITLE7=Urrar-Boi Maioba
TTITLE8=Cantar toada eh muito bom-Boi Maioba
TTITLE9=Nao mexa no ambiente-Boi Maioba
TTITLE10=Entre a paz e o amor-Boi Maioba
TTITLE11=As estrelas da manha-Boi Maioba
TTITLE12=Alta madrugada-Boi Maioba
TTITLE13=Pout pouri-Boi Maioba
TTITLE14=Despedida-Boi Maioba
EXTD=YEAR: 2002
EXTT0=
EXTT1=
EXTT2=
EXTT3=
EXTT4=
EXTT5=
EXTT6=
EXTT7=
EXTT8=
EXTT9=
EXTT10=
EXTT11=
EXTT12=
EXTT13=
EXTT14=
PLAYORDER=
